<?xml version="1.0" encoding="UTF-8"?><svg id="Layer_1" xmlns="http://www.w3.org/2000/svg" viewBox="0 0 442.82 186.5"><defs><style>.cls-1{fill:#3d195b;}</style></defs><path id="path44" class="cls-1" d="M340.91,124.41l1.22-5.16h9.87v38.88c0,7.59-2.12,12.91-7.14,16.86-3.79,2.89-8.96,5.01-15.19,5.01-8.51,0-14.58-2.89-19.44-7.59l6.23-8.66c3.04,2.89,7.14,5.47,12.45,5.47,8.35,0,12-4.1,12-10.18v-2.89c-3.34,3.49-7.29,4.86-11.69,4.86-11.54,0-20.66-9.42-20.66-21.41s9.42-20.96,20.96-20.96c4.71,0,8.96,2.28,11.39,5.77M330.89,128.82c-5.92,0-10.63,4.55-10.63,10.78s4.71,10.63,10.63,10.63,10.63-4.71,10.63-10.63c0-6.23-4.71-10.78-10.63-10.78M266.65,61.23c-4.71,0-8.66,2.73-9.57,7.14h18.83c-.91-4.25-4.7-7.14-9.26-7.14M267.26,94.19c-12.6,0-21.87-8.66-21.87-21.26,0-11.39,8.35-21.57,21.57-21.57,9.87,0,20.05,7.44,20.05,21.26,0,1.06,0,2.43-.3,3.95h-29.77c1.06,4.56,5.16,7.6,10.17,7.6,4.56,0,8.05-1.67,10.94-4.71l6.83,6.99c-4.4,5.01-10.78,7.75-17.62,7.75M393.46,61.23c-4.71,0-8.65,2.73-9.57,7.14h18.83c-.91-4.25-4.71-7.14-9.26-7.14M394.07,94.19c-12.6,0-21.87-8.66-21.87-21.26,0-11.39,8.35-21.57,21.57-21.57,9.87,0,20.05,7.44,20.05,21.26,0,1.06,0,2.43-.3,3.95h-29.77c1.07,4.56,5.17,7.6,10.18,7.6,4.55,0,8.05-1.67,10.94-4.71l6.83,6.99c-4.4,5.01-10.78,7.75-17.62,7.75M422.47,128.06c-4.71,0-8.66,2.73-9.57,7.14h18.83c-.91-4.25-4.71-7.14-9.27-7.14M423.07,161.01c-12.61,0-21.87-8.66-21.87-21.26,0-11.39,8.35-21.57,21.57-21.57,9.87,0,20.05,7.44,20.05,21.26,0,1.06,0,2.43-.31,3.95h-29.76c1.06,4.56,5.16,7.59,10.17,7.59,4.56,0,8.05-1.67,10.94-4.71l6.83,6.99c-4.4,5.01-10.78,7.75-17.62,7.75M236.27,128.06c-4.71,0-8.66,2.73-9.57,7.14h18.83c-.91-4.25-4.71-7.14-9.26-7.14M236.88,161.01c-12.6,0-21.87-8.66-21.87-21.26,0-11.39,8.35-21.57,21.56-21.57,9.87,0,20.05,7.44,20.05,21.26,0,1.06,0,2.43-.3,3.95h-29.77c1.06,4.56,5.17,7.59,10.18,7.59,4.55,0,8.05-1.67,10.94-4.71l6.83,6.99c-4.4,5.01-10.78,7.75-17.62,7.75M174.47,159.95v-60.29h12v48.9h26.12v11.39h-38.12ZM220.18,93.13v-40.7h9.72l1.22,5.92c1.82-3.8,5.46-6.38,10.33-6.38,1.06,0,2.12.15,3.19.45v10.78c-1.37-.3-2.58-.46-3.95-.46-5.47,0-9.26,3.34-9.26,9.87v20.5h-11.24ZM418.21,93.13v-40.7h9.72l1.22,5.92c1.82-3.8,5.47-6.38,10.33-6.38,1.06,0,2.12.15,3.19.45v10.78c-1.37-.3-2.58-.46-3.95-.46-5.47,0-9.26,3.34-9.26,9.87v20.5h-11.24ZM339.7,69.13c0-4.4-2.43-7.14-6.23-7.14-4.4,0-6.68,2.73-6.68,7.29v23.84h-11.24v-24c0-4.4-2.43-7.14-6.23-7.14-4.4,0-6.68,2.73-6.68,7.29v23.84h-11.24v-40.7h9.87l1.22,5.32s2.43-6.38,10.02-6.38c4.71,0,8.66,1.97,11.39,6.08l.31.45.31-.45c3.95-5.62,8.81-6.08,11.85-6.08,8.66,0,14.58,6.53,14.58,15.79v25.97h-11.24v-24h0,0ZM362.33,46.96c-3.95,0-6.99-3.04-6.99-6.84s3.04-6.99,6.99-6.99,6.99,3.04,6.99,6.99-3.04,6.84-6.99,6.84M356.56,52.43h11.24v40.7h-11.24v-40.7ZM282.9,128.82c-6.08,0-10.63,4.55-10.63,10.78s4.55,10.63,10.63,10.63,10.48-4.71,10.48-10.63c0-6.23-4.56-10.78-10.48-10.78M280.62,161.01c-10.78,0-20.2-9.87-20.2-21.41s9.41-20.96,20.2-20.96c6.08,0,10.17,2.12,12.61,5.92l1.22-5.32h9.87v40.7h-9.87l-1.22-5.17c-2.43,3.65-6.99,6.23-12.61,6.23M377.36,161.01c-8.96,0-19.89-4.86-19.89-20.05v-21.72h11.23v20.96c0,6.99,3.19,10.02,8.66,10.02,5.01,0,8.66-3.49,8.66-10.02v-20.96h11.24v21.72c0,15.19-11.09,20.05-19.9,20.05M186.46,61.39h6.99c6.08,0,10.48-3.34,10.48-9.42s-4.4-9.27-10.48-9.27h-6.99v18.68ZM174.47,93.13V31.32h19.59c12.76,0,22.33,7.59,22.33,20.66s-9.42,20.96-22.33,20.96h-7.59v20.2h-12Z"/><path id="path56" class="cls-1" d="M131.5,85.34c-4.08,3.34-7.53,5.2-7.53,5.2l.05,10.59c2.91,3.17,5.79,5.8,7.94,10.59,4.08-7.17,3.3-17.72-.46-26.38M128.18,120s-.83-4.37-4.38-8.44l-8.08.19s-10.9,9.13-17.54,9.35c0,0,3.66,6.64,5.51,10.12,3.65-.78,10.09-3.59,12.68-6.54,0,0,1.71,5.39,1.39,11.75,3.64-2.05,8.65-7.63,10.42-16.42M117.76,100.88l-.02-10.55s-4.83-1.51-9.98-5.41c-10.35,1.52-22.89,11.69-22.89,11.69,0,0,4.23,7.84,8.87,16.3,8.15,1.11,20.15-8.93,24.02-12.02M145.38,144.82l-6.66-7.2c-1.9,19.45-11.66,35.96-29.6,47.48l-2.74-10.49c-15.22,10.73-41.35,17.69-63.79,5.3,2.79-13.87,5.26-27.92-.05-44.75-12.43,18.77-23.42,26.13-23.42,26.13-8.4-13.76-7.64-41.35-5.14-49.47l-13.97,4.22c0-9.27,6.84-28.94,16.76-39.99l-8.73-1.36h0c5.93-11.82,14.78-22.02,25.62-29.67h.02c-3.25,5-3.3,17.37,6.23,22.08-4.05-6.92-4.53-15.47-.31-19.9,4.23-4.47,11.34-2.93,15.88.53-1.35-3.86-5.31-8.72-11.24-9.05h0c11.2-5.62,23.92-8.79,37.38-8.79,2.51,0,5.02.11,7.47.32h0c3.91,1.53,9.65,6.91,12.33,10.26,0,0,.19-3.95-2.06-8.71,14.57,3.46,21.52,9.25,24.44,12.04.6,6.15,2.48,9.83,4.97,15.67-4.72-5.16-16.58-13.48-22.25-15.47,0,0-.46,5.33-2.41,7.89-11.28-7.94-16.82-9.94-16.82-9.94-12.38,1.73-20.35,6.39-24.67,10.05l3.77,3.13c-7.46,2.24-12.31,8.49-12.31,8.49.05.12,6.67,1.03,6.67,1.03,0,0-.68,7.58,9.05,12.33,8.33,4.07,20.31-.98,31.59,3.43-7.42-8.35-12.54-12.08-12.54-12.08,0,0-2.95-.6-5.02-.58-2.59.02-6.46.51-10.69-1.1-2.03-.77-4.39-2.14-6.24-3.27,0,0,5.21-5.22,12.82-6.37,0,0,6.87,1.89,12.3,5.81,3.61-3.43,7.38-3.33,7.38-3.33,0,0-3.74,3.4-2.61,7.53,5.43,4.72,11.32,11.48,11.32,11.48,6-3.2,19.05-2.47,21.73.57-3.39-4.3-8.29-7.89-12.07-10.95-.46-1.61-4.6-7.22-5.29-7.74,0,0,3.93,1.18,7.44,4.25,1.01-1.4,2.89-2.83,5.46-3.46,2.64,2.16,3.11,5.48,3.04,6.03-1.19,1.39-2.36,1.95-2.36,1.95l6.36,6.72.64-4.82c14.66,20.42,22.65,44.05,12.37,73.76M29.62,15.57c8.45,3.78,13.88,8.54,14.87,9.27-.45-2.13-2.11-12.38-3.07-18.75,4.93,3.33,16.35,11.07,20.12,13.59C63.07,15.07,68.38.03,68.38.03c0,0,9.6,15.16,11.24,17.62,2-2.05,13.47-14.5,16.44-17.65.49,7.16,1.17,17.41,1.34,18.95.57-.76,4.96-6.77,12.32-12.3-3.19,6.13-4.71,14.59-5.39,21.39-7.24-1.97-14.89-3.03-22.76-3.03-15.12,0-29.32,3.88-41.6,10.69-2.23-6.57-5.73-14.74-10.36-20.13"/></svg>